<svg width="880" height="446" viewBox="0 0 880 446" fill="none" xmlns="http://www.w3.org/2000/svg">
<path d="M823.092 344.455L816.878 339.445C816.069 338.795 815.158 338.284 814.181 337.933L482.822 198.313C480.51 197.538 477.987 197.698 475.792 198.76C473.597 199.821 471.905 201.699 471.076 203.991C470.248 206.284 470.35 208.81 471.359 211.029C472.369 213.248 474.207 214.984 476.48 215.866L806.381 354.95L811.364 358.97C814.489 361.478 817.009 364.658 818.738 368.273C820.467 371.888 821.36 375.846 821.351 379.853C821.351 394.639 809.314 406.673 794.528 406.673H85.4906C70.7042 406.673 58.668 394.637 58.668 379.853C58.668 370.924 63.0315 362.697 70.3847 357.687L443.508 206.578C445.228 205.877 446.702 204.681 447.74 203.141C448.778 201.6 449.334 199.786 449.338 197.928V151.282C449.337 148.808 448.354 146.435 446.604 144.685C444.854 142.936 442.481 141.953 440.007 141.953C411.709 141.953 388.696 118.938 388.696 90.6403C388.696 62.3428 411.712 39.3299 440.007 39.3299C468.296 39.3299 491.317 62.3454 491.317 90.6403C491.358 93.0874 492.36 95.4204 494.105 97.1364C495.85 98.8524 498.2 99.814 500.647 99.814C503.095 99.814 505.444 98.8524 507.189 97.1364C508.935 95.4204 509.936 93.0874 509.977 90.6403C509.977 52.053 478.591 20.6699 440.007 20.6699C401.419 20.6699 370.036 52.053 370.036 90.6403C370.036 126.054 396.486 155.414 430.678 159.996V191.653L62.5177 340.749C61.9856 340.961 61.4748 341.223 60.9922 341.532C54.5446 345.63 49.2387 351.293 45.5683 357.993C41.8979 364.693 39.9824 372.213 40 379.853C40 404.924 60.4038 425.333 85.4799 425.333H794.52C819.594 425.333 840 404.924 840 379.853C840.011 366.057 833.842 353.158 823.092 344.455Z" fill="#168570"/>
<path d="M369.214 390.56C369.214 392.693 369.16 394.72 369.054 396.64C369.054 398.56 368.894 400.32 368.574 401.92C370.707 401.813 372.787 401.76 374.814 401.76C376.84 401.653 378.867 401.547 380.894 401.44V408H340.734V402.72H341.854C345.48 402.4 348.2 401.387 350.014 399.68C351.827 397.973 353.054 395.68 353.694 392.8C354.334 389.92 354.654 386.507 354.654 382.56V377.12H306.014V369.28L363.934 293.44H369.214V367.52L385.374 367.68V377.12H369.214V390.56ZM354.334 316.16L316.574 366.72L354.654 367.2V316.16H354.334ZM440.573 410.56C432.466 410.56 425.746 408.853 420.413 405.44C415.079 401.92 410.919 397.333 407.933 391.68C404.946 385.92 402.813 379.627 401.533 372.8C400.359 365.973 399.773 359.2 399.773 352.48C399.773 345.76 400.519 338.933 402.013 332C403.613 325.067 406.066 318.72 409.373 312.96C412.679 307.093 416.946 302.4 422.173 298.88C427.399 295.253 433.746 293.44 441.213 293.44C448.999 293.44 455.453 295.2 460.573 298.72C465.799 302.24 469.906 306.88 472.893 312.64C475.986 318.293 478.173 324.533 479.453 331.36C480.733 338.187 481.373 344.96 481.373 351.68C481.373 358.293 480.626 365.067 479.133 372C477.639 378.933 475.293 385.333 472.093 391.2C468.893 396.96 464.679 401.653 459.453 405.28C454.333 408.8 448.039 410.56 440.573 410.56ZM441.533 404.32C446.119 404.32 449.906 402.88 452.893 400C455.879 397.12 458.226 393.28 459.933 388.48C461.746 383.68 463.026 378.4 463.773 372.64C464.519 366.773 464.893 360.907 464.893 355.04C464.893 348.533 464.519 342.027 463.773 335.52C463.026 329.013 461.746 323.04 459.933 317.6C458.119 312.16 455.666 307.787 452.573 304.48C449.479 301.173 445.586 299.52 440.893 299.52C436.306 299.52 432.413 300.96 429.213 303.84C426.119 306.72 423.613 310.56 421.693 315.36C419.773 320.16 418.386 325.493 417.533 331.36C416.679 337.227 416.253 343.147 416.253 349.12C416.253 353.6 416.466 358.347 416.893 363.36C417.319 368.373 418.066 373.333 419.133 378.24C420.306 383.04 421.853 387.413 423.773 391.36C425.693 395.307 428.093 398.453 430.973 400.8C433.853 403.147 437.373 404.32 441.533 404.32ZM555.308 390.56C555.308 392.693 555.254 394.72 555.148 396.64C555.148 398.56 554.988 400.32 554.668 401.92C556.801 401.813 558.881 401.76 560.908 401.76C562.934 401.653 564.961 401.547 566.988 401.44V408H526.828V402.72H527.948C531.574 402.4 534.294 401.387 536.108 399.68C537.921 397.973 539.148 395.68 539.788 392.8C540.428 389.92 540.748 386.507 540.748 382.56V377.12H492.108V369.28L550.028 293.44H555.308V367.52L571.468 367.68V377.12H555.308V390.56ZM540.428 316.16L502.668 366.72L540.748 367.2V316.16H540.428Z" fill="#168570"/>
</svg>
