<svg width="16" height="16" viewBox="0 0 16 16" fill="none" xmlns="http://www.w3.org/2000/svg">
<g clip-path="url(#clip0_93_13308)">
<path d="M11.332 1.3335H4.66536C2.82442 1.3335 1.33203 2.82588 1.33203 4.66683V11.3335C1.33203 13.1744 2.82442 14.6668 4.66536 14.6668H11.332C13.173 14.6668 14.6654 13.1744 14.6654 11.3335V4.66683C14.6654 2.82588 13.173 1.3335 11.332 1.3335Z" stroke="#1B1B1B" stroke-linecap="round" stroke-linejoin="round"/>
<path d="M10.6658 7.5802C10.7481 8.13503 10.6533 8.70168 10.395 9.19954C10.1367 9.69741 9.72792 10.1011 9.2269 10.3533C8.72589 10.6055 8.15812 10.6933 7.60434 10.6042C7.05057 10.515 6.53899 10.2536 6.14238 9.85698C5.74577 9.46036 5.48431 8.94878 5.3952 8.39501C5.30609 7.84124 5.39386 7.27346 5.64604 6.77245C5.89821 6.27144 6.30194 5.86269 6.79981 5.60436C7.29768 5.34603 7.86432 5.25126 8.41915 5.33353C8.9851 5.41746 9.50905 5.68118 9.91362 6.08574C10.3182 6.4903 10.5819 7.01425 10.6658 7.5802Z" stroke="#1B1B1B" stroke-linecap="round" stroke-linejoin="round"/>
<path d="M11.668 4.3335H11.6746" stroke="#1B1B1B" stroke-linecap="round" stroke-linejoin="round"/>
</g>
<defs>
<clipPath id="clip0_93_13308">
<rect width="16" height="16" fill="white"/>
</clipPath>
</defs>
</svg>
