<svg width="155" height="36" viewBox="0 0 155 36" fill="none" xmlns="http://www.w3.org/2000/svg">
<path d="M1 4V1H42V4H25V35H17V4H1Z" fill="white"/>
<path d="M58 1H50V35H58V1Z" fill="white"/>
<path d="M101 1H71V35H78V23H95V20H78V4H101V1Z" fill="white"/>
<path d="M138.5 1H108.5V35H115.5V23H132.5V20H115.5V4H138.5V1Z" fill="white"/>
<path d="M154 1H146V35H154V1Z" fill="white"/>
<path d="M1 4V1H42V4H25V35H17V4H1Z" stroke="white"/>
<path d="M58 1H50V35H58V1Z" stroke="white"/>
<path d="M101 1H71V35H78V23H95V20H78V4H101V1Z" stroke="white"/>
<path d="M138.5 1H108.5V35H115.5V23H132.5V20H115.5V4H138.5V1Z" stroke="white"/>
<path d="M154 1H146V35H154V1Z" stroke="white"/>
</svg>
